<?xml version="1.0" encoding="UTF-8" standalone="no"?>
<svg width="25px" height="24px" viewBox="0 0 25 24" version="1.1" xmlns="http://www.w3.org/2000/svg" xmlns:xlink="http://www.w3.org/1999/xlink">
    <!-- Generator: sketchtool 42 (36781) - http://www.bohemiancoding.com/sketch -->
    <title>D1A87736-0FDA-481A-8542-6E10B70BE911</title>
    <desc>Created with sketchtool.</desc>
    <defs></defs>
    <g id="website" stroke="none" stroke-width="1" fill="none" fill-rule="evenodd">
        <g id="07-solicitar-servicio" transform="translate(-930.000000, -527.000000)" fill="#A8A4A4">
            <g id="calendar-icon" transform="translate(930.000000, 527.000000)">
                <path d="M21.9163223,1.9643754 L3.05268595,1.9643754 C1.36880165,1.9643754 0,3.52091937 0,5.43576215 L0,20.0966442 C0,22.011487 1.36880165,23.568031 3.05268595,23.568031 L21.911157,23.568031 C23.5950413,23.568031 24.963843,22.011487 24.963843,20.0966442 L24.963843,5.4416359 C24.9690083,3.52679312 23.6002066,1.9643754 21.9163223,1.9643754 Z M23.5743802,20.0966442 C23.5743802,21.1362981 22.8305785,21.9821183 21.9163223,21.9821183 L3.05268595,21.9821183 C2.13842975,21.9821183 1.3946281,21.1362981 1.3946281,20.0966442 L1.3946281,5.4416359 C1.3946281,4.401982 2.13842975,3.55616188 3.05268595,3.55616188 L21.911157,3.55616188 C22.8254132,3.55616188 23.5692149,4.401982 23.5692149,5.4416359 L23.5692149,20.0966442 L23.5743802,20.0966442 Z" id="Shape"></path>
                <polygon id="Path-3" fill-rule="nonzero" points="2.08333333 9.62364824 22.6853684 9.62364824 22.6853684 8.21217983 2.08333333 8.21217983"></polygon>
                <polyline id="Path-3-Copy" fill-rule="nonzero" points="5.59895833 5.90967802 5.59895833 4.08562073e-13 4.16666667 4.08562073e-13 4.16666667 5.90967802"></polyline>
                <polyline id="Path-3-Copy-2" fill-rule="nonzero" points="10.8072917 5.90967802 10.8072917 4.08562073e-13 9.375 4.08562073e-13 9.375 5.90967802"></polyline>
                <polyline id="Path-3-Copy-3" fill-rule="nonzero" points="16.015625 5.90967802 16.015625 4.08562073e-13 14.5833333 4.08562073e-13 14.5833333 5.90967802"></polyline>
                <polyline id="Path-3-Copy-4" fill-rule="nonzero" points="21.2239583 5.90967802 21.2239583 0 19.7916667 0 19.7916667 5.90967802"></polyline>
            </g>
        </g>
    </g>
</svg>